<?xml version="1.0" encoding="UTF-8"?>
<svg version="1.1" xmlns="http://www.w3.org/2000/svg" width="512" height="512">
<path d="M0 0 C168.96 0 337.92 0 512 0 C512 168.96 512 337.92 512 512 C343.04 512 174.08 512 0 512 C0 343.04 0 174.08 0 0 Z " fill="#E3A242" transform="translate(0,0)"/>
<path d="M0 0 C-0.87213135 0.86689453 -1.7442627 1.73378906 -2.64282227 2.62695312 C-5.90877402 5.87466792 -9.17130299 9.12580327 -12.43286133 12.37792969 C-13.83917075 13.77924133 -15.24638022 15.17965036 -16.65454102 16.57910156 C-18.69009656 18.60239038 -20.72228531 20.62901128 -22.75390625 22.65625 C-23.37399063 23.2711731 -23.99407501 23.88609619 -24.63294983 24.51965332 C-27.55184925 27.43818535 -30.36312151 30.38854684 -33.03515625 33.53515625 C-38.88047391 40.29345386 -45.35704801 46.47913308 -51.68359375 52.78125 C-53.10870413 54.20449244 -54.53359176 55.62795794 -55.95826721 57.05163574 C-59.68617009 60.77574302 -63.41706756 64.49683584 -67.14862061 68.21728516 C-70.9648443 72.02323076 -74.77819517 75.83205245 -78.59179688 79.640625 C-86.05840678 87.09654981 -93.528187 94.54928963 -101 102 C-101 98.47400087 -100.15383374 97.12846975 -98.4296875 94.08203125 C-97.87039551 93.08776123 -97.31110352 92.09349121 -96.73486328 91.0690918 C-95.81423096 89.45707886 -95.81423096 89.45707886 -94.875 87.8125 C-94.24190918 86.69335205 -93.60881836 85.5742041 -92.95654297 84.42114258 C-88.17646548 75.99653709 -83.31220703 67.62137462 -78.41162109 59.26635742 C-73.03354295 50.09176785 -67.75901877 40.85967107 -62.50439453 31.61401367 C-61.25096545 29.41226443 -59.9799055 27.22043969 -58.68969727 25.04003906 C-56.96185795 22.10015025 -56.96185795 22.10015025 -55.91772461 19.17089844 C-54.33474601 15.43697841 -52.84030961 12.88326229 -49.07427979 11.07574463 C-43.05645334 8.82688342 -36.81239991 7.43689388 -30.5625 6 C-28.67292067 5.53623394 -26.78423345 5.06881697 -24.89648438 4.59765625 C-20.65989551 3.54523483 -16.41514741 2.53420877 -12.16433716 1.54101562 C-10.11425224 1.02855943 -8.11355622 0.4278701 -6.09741211 -0.203125 C-3 -1 -3 -1 0 0 Z " fill="#E4A343" transform="translate(381,191)"/>
<path d="M0 0 C11.93103448 0 11.93103448 0 17 3 C19.51419926 5.91971527 19.96340947 7.65848838 20.375 11.5 C19.96659534 15.31177679 19.44340191 17.06791771 17 20 C11.19223871 24.21062694 8.02500529 23 0 23 C0 15.41 0 7.82 0 0 Z " fill="#E4A343" transform="translate(291,366)"/>
<path d="M0 0 C2.69857709 2.69857709 2.53144369 4.68486597 3 8.4375 C3.61569058 13.52837561 3.61569058 13.52837561 6 18 C8.40864994 18.76907109 8.40864994 18.76907109 11.1875 19.125 C12.1671875 19.2796875 13.146875 19.434375 14.15625 19.59375 C15.0946875 19.7278125 16.033125 19.861875 17 20 C17.7528125 20.1134375 18.505625 20.226875 19.28125 20.34375 C20.85229742 20.57554388 22.42587566 20.79011676 24 21 C24 21.33 24 21.66 24 22 C22.33710938 22.16435547 22.33710938 22.16435547 20.640625 22.33203125 C19.17701127 22.49152762 17.71347333 22.65172049 16.25 22.8125 C15.52039063 22.88275391 14.79078125 22.95300781 14.0390625 23.02539062 C8.32834656 23.61605167 8.32834656 23.61605167 4 27 C3.15437713 30.34222653 3.15437713 30.34222653 2.875 34.0625 C2.19288175 40.80711825 2.19288175 40.80711825 0 43 C-0.09796875 41.96359375 -0.1959375 40.9271875 -0.296875 39.859375 C-0.4470002 38.48948259 -0.59809287 37.11969596 -0.75 35.75 C-0.811875 35.06808594 -0.87375 34.38617188 -0.9375 33.68359375 C-1.30291894 30.5470812 -1.83520895 28.25377822 -3.5625 25.59375 C-6.95202144 23.37752444 -10.31051447 23.08409065 -14.25 22.75 C-14.99507813 22.67265625 -15.74015625 22.5953125 -16.5078125 22.515625 C-18.33699628 22.32801641 -20.16835874 22.16186597 -22 22 C-22 21.67 -22 21.34 -22 21 C-20.96359375 20.87882812 -19.9271875 20.75765625 -18.859375 20.6328125 C-17.48953562 20.46392819 -16.11974651 20.29463589 -14.75 20.125 C-14.06808594 20.04636719 -13.38617188 19.96773437 -12.68359375 19.88671875 C-7.5636817 19.24079865 -7.5636817 19.24079865 -3 17 C-0.42745599 11.71951492 -0.39054977 5.77602552 0 0 Z " fill="#DB9D40" transform="translate(294,84)"/>
<path d="M0 0 C0.66 0 1.32 0 2 0 C3.01006939 3.38047418 3.19764268 6.54147056 3.25 10.0625 C3.27578125 11.10535156 3.3015625 12.14820313 3.328125 13.22265625 C3 16 3 16 1.484375 17.87109375 C0.74960938 18.42990234 0.74960938 18.42990234 0 19 C-0.19425873 16.20865148 -0.38069517 13.41716313 -0.5625 10.625 C-0.61857422 9.8309375 -0.67464844 9.036875 -0.73242188 8.21875 C-1.11328125 2.2265625 -1.11328125 2.2265625 0 0 Z " fill="#DB9D40" transform="translate(234,219)"/>
</svg>
